<?xml version="1.0" encoding="utf-8"?>
<!-- Generator: Adobe Illustrator 15.0.1, SVG Export Plug-In . SVG Version: 6.00 Build 0)  -->
<!DOCTYPE svg PUBLIC "-//W3C//DTD SVG 1.1//EN" "http://www.w3.org/Graphics/SVG/1.1/DTD/svg11.dtd">
<svg version="1.1" id="Layer_1" xmlns="http://www.w3.org/2000/svg" xmlns:xlink="http://www.w3.org/1999/xlink" x="0px" y="0px"
	 width="520.22px" height="520.22px" viewBox="0 0 520.22 520.22" enable-background="new 0 0 520.22 520.22" xml:space="preserve">
<path fill-rule="evenodd" clip-rule="evenodd" d="M513.91,202.75c-0.021-0.09-0.04-0.17-0.061-0.25
	c-4.859-19.48-11.79-37.21-19.34-52.99c-3.44-7.19-7.19-14.19-11.24-20.97c-0.89-1.51-1.8-3-2.72-4.48
	c-26.89-43.13-65.76-77.34-111.78-99.16c-7.25-3.45-14.68-6.58-22.26-9.39c-4.9-1.82-9.83-3.23-14.79-4.44
	c-10.25-2.5-20.62-4.11-31.21-6.56c-2.01-0.47-4.08-0.88-6.19-1.25C278.06,0.4,258.98,0.25,240.96,1.71c-0.01-0.01-0.02-0.01-0.04,0
	c-15.81,1.27-30.82,3.79-42.41,6.8c-2.05,0.53-4.11,1.02-6.17,1.48c-0.02,0.01-0.04,0.01-0.06,0.02c-5.96,1.34-11.95,2.57-17.77,4.5
	c-1.86,0.62-4.08,1.34-6.4,2.16c-0.07,0.02-0.13,0.05-0.2,0.07c-0.97,0.34-1.95,0.73-2.92,1.13c-2.19,0.9-4.35,1.88-6.28,2.57
	c-0.07,0.03-0.13,0.05-0.19,0.07h-0.01c-0.11,0-0.23,0.1-0.34,0.16c-0.12,0.06-0.24,0.12-0.35,0.18c-2.21,1.11-4.05,2.26-5.17,3.46
	c-0.02,0.03-0.05,0.05-0.07,0.07l-0.01,0.01c-0.02,0.01-0.04,0.03-0.06,0.05c-0.04,0.05-0.11,0.06-0.19,0.07s-0.19,0-0.3,0h-2.35
	c-0.01,0-0.01,0-0.01,0c-26.95,13-51.79,30.02-73.47,51.7C43.18,109.22,20.13,149.53,8.57,193.5c-0.06,0.2-0.11,0.39-0.15,0.58
	c-1.1,4.45-2.07,8.93-2.91,13.43c-4.17,22.38-6.29,53.82-4.07,80.2c0,0.03,0.01,0.069,0.01,0.1c0.57,5.44,1.31,10.84,2.22,16.19
	c2.08,9.95,5.83,22.819,7.84,29.51c0.5,1.68,0.45,3.58,0.56,5.35c4.06,12.83,9.12,25.311,15.14,37.341
	c16.29,31.38,39.37,59.479,65.3,81.369c0.39,0.33,0.79,0.671,1.19,1c7.41,6.171,15.04,11.851,22.81,16.94
	c1.35,0.88,2.82,1.92,4.38,3.05c4.33,3.101,9.36,6.88,14.38,9.87c1.74,1.05,3.48,1.99,5.19,2.78c0.06,0.03,0.12,0.06,0.18,0.09
	c2.37,1.09,4.69,1.88,6.87,2.21c0.06,0.01,0.12,0.02,0.17,0.02c25.93,3.87,32.98-16.439,54.83-19.02c2.67-5.99,3.75-13.58,9-17
	c5.81-1.52,12.12-2.55,16-6c-0.77-18.89-13.69-25.64-18-41c4.65-7.35,13.3-10.7,18-18c4.42-15.34-4.05-19.87-9-28
	c-8.13-13.36-13.01-29.47-11-52c0.89-10.02,6.09-23.75,4-37c-0.74-4.68-7.58-18.61-9-20c-4.31-4.25-10.45-7.84-15-9
	c-1.73,0.61,0.08,4.74-2,5c-5.09-4.57-2.38-16.95-9-20c-3.11,2.53,0.85,11.73-1,13c-1.88-5.79-5.28-10.06-9-14
	c1.21-7.54-1.98-10.68-5-14c-26.9,0.77-48.4,6.93-78,5c-0.12-8.88-9.28-8.72-12-15c0.4-6.15-5.32-9.92-7-16
	c-0.93-3.37,0.14-8.36-1-13c-1.08-4.42-4.61-8.15-5-12c-0.44-4.33,1.67-10.78,2-16c0.9-14.27,3.9-21.65,8-30
	c3.78,1.45,1.92-2.75,5-2c2.4-6.94,7.36-11.31,7-21c3.76-4.86,12.77-17.93,19-8c-9.27-0.29-11.76,9.32-11,16
	c9.23-2.53,19.1-12.11,25,0c-6.22-1.27-18.11,2.07-15,10c4.11,3.36,6.74-3.21,11,0c-0.83,4.31,3.56,10.12-1,12
	c-0.17-5.51-10.46-5.09-12-1c0.68,3.65,7.58,1.09,7,6c-0.97,3.37-1.43,7.24-5,8c-4.12,0.79-1.88-4.79-6-4
	c-17.44,5.13-8.77,28.28-3,40c7.18,1.15,10.02,6.64,15,10c10.99-2.01,22.21-3.79,35-4c6.39-9.94,23.06-9.61,26-23
	c-3.94-2.35-3.06,1.88-7,2c-0.1-1.57,0.13-3.47-2-3c-2.64,1.4-6.6,6.68-10,4c8.08-6.59,14.63-14.7,16-28c4.49-1.41,3.73-4.15,4-8
	c0.13-1.78-1.76,0.47-2-1c-0.02-0.09,1.67-2.33,1-4c-1.1-2.76-4.87-4.31-5-7c-3.45-1.88-9.82-0.85-9-7c5.8,2.2,15.57,0.43,23,1
	c2.03-3.97,5.91-6.09,6-12c9.19-5.48,15.19-14.14,23-21c1.16-0.84,2.68-1.32,5-1c0.11-1.22,0.3-2.37,2-2c3.15-4.27,7.46-11.28,14-19
	c4.48-5.29,13.48-16.25,18-16c7.45,0.42,9.3,11.89,6,22c1.8-0.13,2.34,0.99,2,3c3.49,0.76,7.55-3.03,10,0
	c-0.59,9.07-3.38,15.95-10,19c1.18,6.85-4.46,6.87-5,12c4.32,7.08-1.96,13.15-2,19c-0.04,6.1,4.18,10.46,5,17
	c5.06,3.35,15.26,4.36,15,10c11.11,0.81,16.73,9.29,29,6c7.08,8.92,20.04,5.9,35,9c7.66,1.59,12.94,5.91,18,5
	c2.56-0.46,9.6-7.77,12-10c4.73-4.38,5.08-3.58,8-9c3.28-6.09,3.38-10.15,3-18c-1.53-2.56-4.27-5.31-6-9c-0.63-1.35,0.7-3.69,0-5
	c-2.32-4.38-7.54-8.79-2-13c3.37,3.97,4.77,9.9,10,12c4.19-3.47,4.38-10.96,4-19c-1.59-2.41-4.67-3.33-6-6c3.93-0.63,7.25-2.97,11-1
	c1.29,3.04-0.5,9.16,4,9c7.57-1.31,2.68-11.1,5-16c6.98,4.76,4.35,8.34,4,19c7.22-0.11,4.28-10.39,10-12c1.31,9.31-3.65,12.35-5,19
	c6.73,2.36,7.24-6.72,11-4c-2.45,6.55-7.55,10.45-13,14c-1.03,7.63-6.45,10.88-8,18c-0.48,3.15,1.42,3.91,2,6
	c-5.7,15.3-9.76,26.49-17,38c-2.57,4.08-5.3,9.2-8,11c-7.54,5.01-28.65,5.44-41,4c-4.47-0.52-8.83-3.54-13-3
	c-5.12,0.67-9.92,5.02-11,9c-1.58,5.83,2.41,12.24,3,19c0.4,4.62-1.97,6.44-2,8c-0.01,0.61,5.16,7.85,1,9c-1.65-0.02-0.56-2.77-2-3
	c-1.88,24.21,10.47,34.2,7,60c9.61,16.97,28.61-2.14,47-4c21-2.13,44.52,7.69,48,21c3.62,13.84-8.42,15.76-10,31
	c-8.05,7.25-11.73,13.87-18,23c-3.73,5.43-8.4,8.51-8,15c-4.89-1.23-2.26,5.07-4,7c9.29,14.04,14.42,32.24,37,33
	c0.89,9,15.4,6.66,10,19c15.752-0.313,21.5,9.379,28.734,17.593c0.187,0.176,0.353,0.368,0.505,0.57
	c0.236,0.265,0.465,0.521,0.711,0.777c1.88-1.771,3.74-3.57,5.58-5.41c19.649-19.65,35.76-41.87,48.02-65.92
	c0.2-0.391,0.4-0.78,0.59-1.17c10.46-21.051,18.29-44.131,23.271-69.36c0.03-0.11,0.05-0.23,0.07-0.35
	c2.8-15.391,4.229-31.15,4.229-47.131C520.22,240.57,518.08,221.36,513.91,202.75z"/>
<path fill-rule="evenodd" clip-rule="evenodd" d="M326.51,347.51c0.478,6.478,0.032,12.032-3,15c0.349,13.318,12.207,15.126,18,23
	c4.117,11.597,11.226,25.377,13,36c-11.785,2.548-30.667-2-36,7c-12.938,0.661-24.404,4.831-32,11c-5.429,4.409-9.069,10.73-19,12
	c-4.615-2.964-7.967-7.899-12-13c-3.302-4.176-9.937-10.679-10-15c-0.062-4.229,4.329-8.228,9-13c3.209-3.278,7.053-8.467,10-11
	c1.017-0.874,4.213-0.61,6-2c1.421-1.104,1.711-3.117,3-4c5.916-4.054,11.236-5.113,13-14c1.353-6.813,0.118-15.948-2-25
	c14.818,1.114,32.244,1.626,40-7C325.177,347.51,325.843,347.51,326.51,347.51z"/>
<g>
	<path d="M513.91,202.75c-0.021-0.09-0.04-0.17-0.061-0.25c-10.68-47.47-34.56-91.06-69.81-126.31C394.91,27.06,329.59,0,260.11,0
		c-31.94,0-62.99,5.72-92,16.67c-0.07,0.02-0.13,0.05-0.2,0.07c-0.98,0.37-1.95,0.75-2.92,1.13c-2.11,0.83-4.2,1.68-6.28,2.57
		c-0.06,0.03-0.13,0.05-0.19,0.08c-0.01,0-0.01,0.02-0.01,0.02c-0.11,0.05-0.23,0.1-0.34,0.15c-0.12,0.05-0.23,0.1-0.35,0.16
		c-2.74,1.21-5.45,2.74-8.15,3.66c-0.01,0-0.01,0-0.01,0c-26.95,13-51.79,30.02-73.47,51.7C43.18,109.22,20.13,149.53,8.57,193.5
		c-0.06,0.2-0.11,0.39-0.15,0.58C2.86,215.37,0,237.52,0,260.109c0,9.28,0.48,18.49,1.44,27.601c0,0.03,0.01,0.069,0.01,0.1
		c0.57,5.44,1.31,10.84,2.22,16.19c2,11.859,4.81,23.5,8.4,34.859c4.06,12.83,9.12,25.311,15.14,37.341
		c12.38,24.79,28.82,47.67,48.98,67.84c17.76,17.77,37.65,32.649,59.08,44.39c1.72,0.95,3.45,1.88,5.19,2.78
		c0.06,0.03,0.12,0.06,0.18,0.09c0.549,0.284,1.104,0.556,1.657,0.83c0.473,0.101,0.898,0.267,1.28,0.479
		c0.414,0.07,0.807,0.17,1.155,0.325c0.581,0.073,1.1,0.234,1.557,0.465c0.685,0.019,1.301,0.144,1.835,0.366l0.06,0.003
		c-0.168-0.08-0.337-0.158-0.504-0.239c-9.25-4.47-18.19-9.47-26.79-14.97c-9.5-6.08-18.58-12.76-27.19-19.99
		c-0.4-0.329-0.8-0.67-1.19-1C36.56,410,1,339.13,1,260.109C1,155.82,62.95,65.71,151.98,24.67c0.01-0.01,0.03-0.01,0.04-0.02
		c0.1-0.05,0.2-0.1,0.3-0.14c0.08-0.05,0.17-0.09,0.25-0.12l0.01-0.01c0.02-0.01,0.05-0.02,0.07-0.03
		c12.69-5.81,25.94-10.63,39.63-14.34c0.02-0.01,0.04-0.01,0.06-0.02c15.66-4.25,31.9-7.06,48.58-8.28c0.02-0.01,0.03-0.01,0.04,0
		C247.28,1.24,253.67,1,260.11,1c11.59,0,23.01,0.77,34.209,2.26c12.78,1.68,25.271,4.31,37.4,7.81
		c12.78,3.67,25.16,8.31,37.05,13.83c46.24,21.44,85.13,56.13,111.78,99.16c0.92,1.48,1.83,2.97,2.72,4.48
		c22.83,38.58,35.95,83.57,35.95,131.57c0,74.208-31.359,141.228-81.507,188.518c0.233,0.299,0.432,0.624,0.588,0.97
		c0.053-0.049,0.106-0.097,0.159-0.146c1.88-1.771,3.74-3.57,5.58-5.41c19.649-19.65,35.76-41.87,48.02-65.92
		c0.2-0.391,0.4-0.78,0.59-1.17c11-21.83,18.83-45.141,23.271-69.36c0.03-0.11,0.05-0.23,0.07-0.35
		c2.8-15.391,4.229-31.15,4.229-47.131C520.22,240.57,518.08,221.36,513.91,202.75z"/>
	<path d="M240.92,1.71c-15.81,1.27-30.82,3.79-42.41,6.8c-2.05,0.53-4.11,1.02-6.17,1.48C208,5.74,224.24,2.93,240.92,1.71z"/>
	<path d="M331.72,11.07c-10.25-2.5-20.62-4.11-31.21-6.56c-2.01-0.47-4.08-0.88-6.19-1.25C307.1,4.94,319.59,7.57,331.72,11.07z"/>
	<path d="M480.55,124.06c-26.89-43.13-65.76-77.34-111.78-99.16C415.01,46.34,453.899,81.03,480.55,124.06z"/>
	<path d="M120.89,478.56c-9.5-6.08-18.58-12.76-27.19-19.99c7.41,6.171,15.04,11.851,22.81,16.94
		C117.86,476.39,119.33,477.43,120.89,478.56z"/>
</g>
</svg>
